PathFileType	4	(X/Y/Z)	C:\Users\Basilio\Documents\Thesis Gigler\squatting_fais\c3dfiles\038\SLS_back_pre3\markers_experimental.trc
DataRate	CameraRate	NumFrames	NumMarkers	Units	OrigDataRate	OrigDataStartFrame	OrigNumFrames
200.000000	200.000000	4	63	mm	200.000000	0	1878
Frame#	Time	FHD			LBHD			RBHD			C7			T10			CLAV			LSHO			LUUPA			LMUPA			LDUPA			LLEP			LMEP			LRAD			LUL			LRFIN			RSHO			RUPA1			RMUPA			RDUPA			RLEP			RMEP			RRAD			RUL			RUFIN			LASI			RASI			USACR			LSACR			RSACR			LTHI1			LTHI2			LTHI3			LTHI4			LLFC			LMFC			LTIB1			LTIB2			LTIB3			LTIB4			LLMAL			LMMAL			LHEE			LMT1			LMT2			LMT5			RTHI			RTHI2			RTHI3			RTHI4			RLFC			RMFC			RTIB1			RTIB2			RTIB3			RTIB4			RLMAL			RMMAL			RHEE			RMT1			RMT2			RMT5			*61			*62			
		X1	Y1	Z1	X2	Y2	Z2	X3	Y3	Z3	X4	Y4	Z4	X5	Y5	Z5	X6	Y6	Z6	X7	Y7	Z7	X8	Y8	Z8	X9	Y9	Z9	X10	Y10	Z10	X11	Y11	Z11	X12	Y12	Z12	X13	Y13	Z13	X14	Y14	Z14	X15	Y15	Z15	X16	Y16	Z16	X17	Y17	Z17	X18	Y18	Z18	X19	Y19	Z19	X20	Y20	Z20	X21	Y21	Z21	X22	Y22	Z22	X23	Y23	Z23	X24	Y24	Z24	X25	Y25	Z25	X26	Y26	Z26	X27	Y27	Z27	X28	Y28	Z28	X29	Y29	Z29	X30	Y30	Z30	X31	Y31	Z31	X32	Y32	Z32	X33	Y33	Z33	X34	Y34	Z34	X35	Y35	Z35	X36	Y36	Z36	X37	Y37	Z37	X38	Y38	Z38	X39	Y39	Z39	X40	Y40	Z40	X41	Y41	Z41	X42	Y42	Z42	X43	Y43	Z43	X44	Y44	Z44	X45	Y45	Z45	X46	Y46	Z46	X47	Y47	Z47	X48	Y48	Z48	X49	Y49	Z49	X50	Y50	Z50	X51	Y51	Z51	X52	Y52	Z52	X53	Y53	Z53	X54	Y54	Z54	X55	Y55	Z55	X56	Y56	Z56	X57	Y57	Z57	X58	Y58	Z58	X59	Y59	Z59	X60	Y60	Z60	X61	Y61	Z61	X62	Y62	Z62	X63	Y63	Z63	

1	0	-149.652816772461	1778.412841796875	-965.7681884765627	-302.6520690917969	1721.020141601563	-1024.931640625	-294.2509765625001	1711.002075195313	-880.3469238281252	-347.7042846679688	1559.005981445313	-946.8352050781252	-380.8542480468751	1272.5576171875	-938.8247070312502	-211.1580657958985	1511.1044921875	-958.914978027344	-283.3658447265626	1551.244750976563	-1122.834106445313	-337.2391357421876	1316.81640625	-1207.472778320313	-289.6389465332032	1301.644165039063	-1199.342041015625	-319.2583618164063	1250.063110351563	-1212.920288085938	-305.5072937011719	1192.548583984375	-1213.451293945313	-352.0382995605469	1171.286987304688	-1154.552368164063	-180.1007995605469	934.3023071289065	-1125.490112304688	-218.129379272461	918.2405395507815	-1184.773803710938	-129.3333435058594	870.683288574219	-1138.3037109375	-258.6604309082032	1544.883544921875	-786.6201171875002	-300.0820617675782	1340.050048828125	-679.7479248046876	-266.7823181152344	1307.844116210938	-694.9360961914064	-305.6028747558594	1271.887939453125	-665.7857055664064	-303.0613403320313	1197.935791015625	-654.4031372070314	-351.0231933593751	1177.932495117188	-715.9643554687501	-174.615478515625	954.0977783203127	-720.4768676757814	-214.9744567871094	929.8860473632815	-665.8703613281251	-128.5361328125	882.2947387695315	-696.2001953125001	-217.5338439941407	1075.54248046875	-1062.784057617188	-217.2171630859376	1086.831420898438	-809.6447753906252	-385.550750732422	1129.298950195313	-936.5469360351565	-398.8905334472657	1100.102416992188	-963.7107543945315	-396.9645996093751	1101.389770507813	-907.5106201171877	-271.8807373046876	754.7384033203126	-1109.348022460938	-247.0349578857422	673.7070312500001	-1101.827514648438	-200.1177978515626	676.2536010742189	-1081.26611328125	-277.7090454101563	626.6589355468751	-1082.51953125	-277.8880004882813	564.2827148437501	-1074.377563476563	-264.6110229492188	555.0169067382814	-955.0569458007815	-258.5823974609376	372.5608520507813	-1007.391174316406	-306.7627868652344	335.5854187011719	-1072.86572265625	-272.3360900878907	327.1102294921876	-1044.5458984375	-289.4538574218751	249.6797943115235	-1017.394836425781	-382.6557617187501	121.7112884521485	-1036.834350585938	-342.9705200195313	135.5061645507813	-967.2370605468752	-433.2830200195314	102.3657455444336	-981.951599121094	-234.1119232177735	49.22334289550783	-976.4742431640627	-226.1448364257813	45.77575683593751	-1026.912353515625	-271.8397521972657	33.98026275634766	-1073.73291015625	-286.2976989746094	813.2919921875002	-756.2994384765626	-255.7009429931641	753.7034912109376	-753.8188476562501	-222.9283752441407	752.2496337890626	-758.8038940429689	-292.0909118652344	677.8081665039064	-774.1679687500002	-289.5124816894532	541.0637207031251	-785.2857055664065	-291.3869628906251	542.1802368164064	-906.9968872070315	-253.0446319580079	364.5337219238282	-814.6214599609377	-330.0934753417969	286.5502929687501	-776.3821411132815	-284.7775573730469	288.0698547363282	-788.0828247070315	-277.7316894531251	237.2276458740235	-818.847351074219	-345.6669921875001	119.2576904296875	-790.7625732421877	-317.4647216796876	125.1691284179688	-869.6005859375002	-406.4365844726564	86.1223602294922	-852.7312622070315	-194.0043640136719	49.06148529052736	-846.6448974609377	-196.8933410644532	49.54942703247072	-800.8103027343752	-239.7607727050782	35.46861267089844	-755.6474609375001	nan	nan	nan	nan	nan	nan	
2	0.005	-149.84716796875	1778.031372070313	-965.5366210937502	-302.6420898437501	1721.027221679688	-1024.939697265625	-294.2842102050782	1711.00439453125	-880.3330688476565	-347.7370300292969	1559.012573242188	-946.8156738281252	-380.9020385742188	1272.559204101563	-938.7989501953127	-211.2162475585938	1511.1298828125	-958.9041748046877	-283.2970886230469	1551.232055664063	-1122.8203125	-337.2321472167969	1316.8271484375	-1207.429443359375	-289.6342773437501	1301.636108398438	-1199.335571289063	-319.2590942382813	1250.065307617188	-1212.91796875	-305.5660705566407	1192.53076171875	-1213.44287109375	-352.0973205566407	1171.312377929688	-1154.561767578125	-180.2227478027344	934.2412109375002	-1125.4404296875	-217.5986785888672	917.7497558593752	-1184.75341796875	-129.5108337402344	870.5703735351565	-1138.300415039063	-258.7042846679688	1544.884399414063	-786.6008300781252	-300.1464233398438	1340.028686523438	-679.7473754882814	-266.8246154785157	1307.839965820313	-694.8656005859376	-305.6943969726563	1271.899169921875	-665.7771606445314	-303.1494750976563	1197.940673828125	-654.3614501953126	-351.1023559570313	1177.951782226563	-715.9224243164064	-174.6895904541016	954.0740356445315	-720.4543457031251	-215.1021270751954	929.8784179687502	-665.8975830078126	-128.6133880615235	882.2776489257815	-696.2991943359376	-217.5338439941407	1075.54248046875	-1062.784057617188	-217.2141113281251	1086.808349609375	-809.639343261719	-385.5474548339845	1129.297729492188	-936.5412597656252	-398.9104003906251	1100.078002929688	-963.7065429687502	-396.9557189941407	1101.357543945313	-907.4998168945315	-271.8845825195313	754.7590332031251	-1109.321655273438	-246.9938201904297	673.6933593750001	-1101.846069335938	-200.0516815185547	676.2293090820314	-1081.291870117188	-277.6408081054688	626.6843261718751	-1082.529296875	-277.8381958007813	564.2301025390626	-1074.3955078125	-264.6173095703126	555.0289306640626	-955.0629882812502	-258.5823974609376	372.5608825683594	-1007.391235351563	-306.7343139648438	335.5740966796876	-1072.841186523438	-272.2881774902344	327.1040344238282	-1044.556274414063	-289.4328613281251	249.6691894531251	-1017.371704101563	-382.7104492187501	122.1432037353516	-1036.688232421875	-343.0106811523438	135.5681762695313	-967.2337036132815	-433.250946044922	102.3606109619141	-981.967712402344	-234.0831146240235	49.23955535888673	-976.5020141601565	-226.1287689208985	45.78080368041993	-1026.881713867188	-271.8790283203126	34.00326538085938	-1073.739624023438	-286.2750244140626	813.2608032226565	-756.2896118164064	-255.6546020507813	753.7228393554689	-753.7768554687501	-222.9141540527344	752.2417602539064	-758.7969360351564	-292.0254516601563	677.7949829101564	-774.1590576171877	-289.4463195800782	541.0601806640626	-785.279724121094	-291.3869628906251	542.1802368164064	-906.9968872070315	-253.0467071533204	364.5307922363282	-814.6230468750002	-330.0959167480469	286.5668029785157	-776.3609008789065	-284.7777404785157	288.0563354492188	-788.0812988281252	-277.7221069335938	237.2319793701172	-818.838073730469	-345.6554565429688	119.2592468261719	-790.7250976562502	-317.4577636718751	125.2294921875	-869.6043090820315	-406.4158325195314	86.1327590942383	-852.686950683594	-193.9454345703126	49.06169891357423	-846.6697998046877	-196.9294433593751	49.58054351806642	-800.8433837890627	-239.7712707519532	35.50325775146485	-755.6537475585939	nan	nan	nan	nan	nan	nan	
3	0.01	-149.7529449462891	1778.380004882813	-965.669616699219	-302.7243347167969	1721.009765625	-1024.91796875	-294.3411865234376	1710.9892578125	-880.3135375976565	-347.7557067871094	1559.012939453125	-946.8472900390627	-380.9020385742188	1272.559204101563	-938.7989501953127	-211.2142791748047	1511.102905273438	-958.9055786132815	-283.3012084960938	1551.24267578125	-1122.819946289063	-337.2318420410157	1316.827880859375	-1207.429443359375	-289.6668701171876	1301.66259765625	-1199.298095703125	-319.2863769531251	1250.05224609375	-1212.87255859375	-305.5567932128907	1192.550170898438	-1213.42626953125	-352.1279907226563	1171.311401367188	-1154.538940429688	-180.3609008789063	934.1817016601565	-1125.469848632813	-218.3923034667969	918.141296386719	-1184.727783203125	-129.6124877929688	870.5325927734377	-1138.248779296875	-258.7347412109376	1544.895263671875	-786.6107177734377	-300.2153625488282	1340.081298828125	-679.7552490234376	-266.9150695800782	1307.849365234375	-694.9018554687501	-305.7909851074219	1271.892456054688	-665.7180175781251	-303.2119445800782	1197.941284179688	-654.3665161132814	-351.1394653320313	1177.95751953125	-715.9249267578126	-174.7596282958985	954.0740966796877	-720.4571533203126	-215.2205047607422	929.8601684570315	-665.8743286132814	-128.7021789550782	882.2868652343752	-696.3098144531251	-215.5776062011719	1075.972534179688	-1063.933959960938	-217.1966857910157	1086.810668945313	-809.6170043945315	-385.5523071289064	1129.278442382813	-936.5400390625002	-398.9090270996095	1100.110107421875	-963.6885986328127	-396.8829956054689	1101.341430664063	-907.4543457031252	-271.8327331542969	754.7111206054689	-1109.308715820313	-246.9497375488282	673.7006225585939	-1101.8720703125	-200.0307922363282	676.2448120117189	-1081.313598632813	-277.6311645507813	626.6823730468751	-1082.54931640625	-277.8266601562501	564.2603759765626	-1074.420043945313	-264.6173095703126	555.0289306640626	-955.0629882812502	-258.5104980468751	372.5771484375001	-1007.436401367188	-306.7486572265626	335.5918579101563	-1072.8916015625	-272.2644042968751	327.1112365722657	-1044.585571289063	-289.3979797363282	249.6740875244141	-1017.345458984375	-382.7050781250001	122.1693191528321	-1036.683715820313	-342.2560424804688	135.9950866699219	-966.9539184570315	-433.2426757812501	102.3522491455078	-982.0007324218752	-234.0868072509766	49.22285842895509	-976.4989013671877	-226.1432800292969	45.7594108581543	-1026.910888671875	-271.9166870117188	34.00541305541993	-1073.708740234375	-286.2371826171876	813.2862548828127	-756.2952880859376	-255.6549224853516	753.6775512695314	-753.8345336914064	-222.8621063232422	752.2554321289064	-758.7999877929689	-292.0220336914063	677.7896728515626	-774.1854248046877	-289.4779663085938	541.0629882812501	-785.2729492187502	-291.3869628906251	542.1802368164064	-906.9968872070315	-253.0629119873047	364.5263671875001	-814.6459960937502	-330.0872497558594	286.5447692871094	-776.4009399414065	-284.7536315917969	288.0712280273438	-788.0794067382815	-277.6959838867188	237.2272644042969	-818.7915649414065	-345.6623229980469	119.2588653564453	-790.7491455078127	-317.4607849121094	125.2321929931641	-869.5876464843752	-406.4494018554689	86.1255569458008	-852.7171020507815	-193.9506072998047	49.09808349609376	-846.6232910156252	-196.914291381836	49.52756500244142	-800.837341308594	-239.7732086181641	35.51433563232423	-755.6467285156251	nan	nan	nan	nan	nan	nan	
4	0.015	-149.9274597167969	1778.018798828125	-965.4311523437502	-302.6696472167969	1721.023315429688	-1024.910888671875	-294.3555297851563	1710.971557617188	-880.3367919921877	-347.8132629394532	1558.998657226563	-946.8548583984377	-380.8995361328126	1272.512451171875	-938.748718261719	-211.1891021728516	1511.106079101563	-958.8833007812502	-283.3609008789063	1551.255249023438	-1122.832641601563	-337.2211608886719	1316.82421875	-1207.4150390625	-289.6665344238282	1301.63720703125	-1199.292602539063	-319.3144531250001	1250.055786132813	-1212.853881835938	-305.6242980957032	1192.562866210938	-1213.37255859375	-352.1536560058594	1171.329711914063	-1154.516845703125	-180.1923980712891	934.2177734375002	-1126.630981445313	-217.8339080810547	917.6859130859377	-1184.728393554688	-129.7713012695313	870.4688110351565	-1138.220458984375	-258.7336730957032	1544.894775390625	-786.5791015625002	-300.2946777343751	1340.04345703125	-679.7337036132814	-266.9580993652344	1307.804931640625	-694.8758544921876	-305.8613891601563	1271.894897460938	-665.7170410156251	-303.2974548339844	1197.947509765625	-654.3804931640626	-351.2414855957032	1177.960815429688	-715.9244995117189	-174.7979431152344	954.0493774414065	-720.4259033203126	-215.3504791259766	929.841979980469	-665.8528442382814	-128.801498413086	882.2216796875002	-696.2733154296876	-215.5776062011719	1075.972534179688	-1063.933959960938	-217.2161560058594	1086.82958984375	-809.6372680664065	-385.5576782226564	1129.259521484375	-936.5361938476565	-398.9057006835939	1100.064453125	-963.679382324219	-396.8829956054689	1101.341430664063	-907.4543457031252	-271.8013916015626	754.7260131835939	-1109.296752929688	-246.9482421875001	673.6971435546876	-1101.871459960938	-200.0003204345704	676.2349853515626	-1081.289428710938	-277.6026916503907	626.6779785156251	-1082.569580078125	-277.8060302734376	564.2564086914064	-1074.40478515625	-264.6173095703126	555.0289306640626	-955.0629882812502	-258.5318908691407	372.5464477539063	-1007.396423339844	-306.6913452148438	335.5681457519532	-1072.898071289063	-272.2690429687501	327.0625000000001	-1044.574462890625	-289.3755798339844	249.6974639892579	-1017.379943847656	-382.7138671875001	122.1546096801758	-1036.6845703125	-342.2663879394532	135.9746398925782	-966.974060058594	-433.2273559570314	102.3733978271485	-981.9694824218752	-234.0868072509766	49.22285842895509	-976.4989013671877	-226.1319732666016	45.75675201416016	-1026.912353515625	-271.8790283203126	34.00326538085938	-1073.739624023438	-286.1977233886719	813.2630004882815	-756.3241577148439	-255.6553649902344	753.6734008789064	-753.8403320312501	-222.8598327636719	752.2244262695314	-758.8067016601564	-292.0130615234376	677.7754516601564	-774.1841430664065	-289.4308166503907	541.0808715820314	-785.2315673828127	-291.3869628906251	542.1802368164064	-906.9968872070315	-253.0552215576172	364.4913940429688	-814.646911621094	-330.0934753417969	286.5502929687501	-776.3821411132815	-284.7481079101563	288.0867004394532	-788.087341308594	-277.7141723632813	237.2331085205079	-818.808532714844	-345.6670532226563	119.2710342407227	-790.7689208984377	-316.7381896972657	124.6925277709961	-869.4702148437502	-406.4744262695314	86.14722442626955	-852.743347167969	-193.9635467529297	49.08106994628908	-846.6148071289065	-196.930404663086	49.58316040039064	-800.8405761718752	-239.7878417968751	35.50649642944337	-755.6297607421876	nan	nan	nan	nan	nan	nan	
